# xmcd
#
# Track frame offsets:
#	150
#	16020
#	35140
#	54695
#	70397
#	86507
#	99632
#	120332
#	136822
#	158286
#	185908
#	205921
#	225936
#	254838
#	276342
#	295150
#	314238
#
# Disc length: 4400 seconds
#
# Revision: 0
# Processed by: cddbd v1.5.1PL0 Copyright (c) Steve Scherf et al.
# Submitted via: dBpowerAMP V4.0
#
DISCID=f8112e11
DTITLE=The Eagles - The Very Best Of The Eagles
DYEAR=1900
DGENRE=Country
TTITLE0=Take It Easy
TTITLE1=Witchy Woman
TTITLE2=Peaceful Easy Feeling
TTITLE3=Doolin-Dalton
TTITLE4=Desperado
TTITLE5=Tequila Sunrise
TTITLE6=Best Of My Love
TTITLE7=James Dean
TTITLE8=I Can't Tell You Why
TTITLE9=Lyin' Eyes
TTITLE10=Take It To The Limit
TTITLE11=One Of These Nights
TTITLE12=Hotel California
TTITLE13=New Kid In Town
TTITLE14=Life In The Fast Lane
TTITLE15=Heartache Tonight
TTITLE16=The Long Run
EXTD=
EXTT0=
EXTT1=
EXTT2=
EXTT3=
EXTT4=
EXTT5=
EXTT6=
EXTT7=
EXTT8=
EXTT9=
EXTT10=
EXTT11=
EXTT12=
EXTT13=
EXTT14=
EXTT15=
EXTT16=
PLAYORDER=
